<svg width="1000" height="800" viewBox="0 0 1000 800" xmlns="http://www.w3.org/2000/svg">
<g id="ternary-geometry" shape-rendering="geometricPrecision" stroke-linecap="round" stroke-linejoin="round">

<rect x="0" y="0" width="1000" height="800" opacity="1" fill="#FFFFFF" stroke="none"/>
<polyline fill="none" opacity="1" stroke="#E1E5EB" stroke-width="1" points="173,669 825,669 "/>
<polyline fill="none" opacity="1" stroke="#E1E5EB" stroke-width="1" points="245,543 753,543 "/>
<polyline fill="none" opacity="1" stroke="#E1E5EB" stroke-width="1" points="318,417 680,417 "/>
<polyline fill="none" opacity="1" stroke="#E1E5EB" stroke-width="1" points="390,292 608,292 "/>
<polyline fill="none" opacity="1" stroke="#E1E5EB" stroke-width="1" points="463,166 535,166 "/>
<polyline fill="none" opacity="1" stroke="#B9BEC6" stroke-width="1" points="209,606 789,606 "/>
<polyline fill="none" opacity="1" stroke="#B9BEC6" stroke-width="1" points="282,480 717,480 "/>
<polyline fill="none" opacity="1" stroke="#B9BEC6" stroke-width="1" points="354,355 644,355 "/>
<polyline fill="none" opacity="1" stroke="#B9BEC6" stroke-width="1" points="427,229 572,229 "/>
<polyline fill="none" opacity="1" stroke="#B9BEC6" stroke-width="1" points="427,229 717,731 "/>
<polyline fill="none" opacity="1" stroke="#B9BEC6" stroke-width="1" points="354,355 572,731 "/>
<polyline fill="none" opacity="1" stroke="#B9BEC6" stroke-width="1" points="282,480 427,731 "/>
<polyline fill="none" opacity="1" stroke="#B9BEC6" stroke-width="1" points="209,606 282,731 "/>
<polyline fill="none" opacity="1" stroke="#B9BEC6" stroke-width="1" points="572,229 282,731 "/>
<polyline fill="none" opacity="1" stroke="#B9BEC6" stroke-width="1" points="644,355 427,731 "/>
<polyline fill="none" opacity="1" stroke="#B9BEC6" stroke-width="1" points="717,480 572,731 "/>
<polyline fill="none" opacity="1" stroke="#B9BEC6" stroke-width="1" points="789,606 717,731 "/>
<polyline fill="none" opacity="1" stroke="#192332" stroke-width="3" points="137,731 862,731 "/>
<polyline fill="none" opacity="1" stroke="#192332" stroke-width="3" points="862,731 499,103 "/>
<polyline fill="none" opacity="1" stroke="#192332" stroke-width="3" points="499,103 137,731 "/>
<polyline fill="none" opacity="1" stroke="#000000" stroke-width="1" points="209,731 206,733 "/>
<polyline fill="none" opacity="1" stroke="#000000" stroke-width="1" points="354,731 352,734 "/>
<polyline fill="none" opacity="1" stroke="#000000" stroke-width="1" points="499,731 499,735 "/>
<polyline fill="none" opacity="1" stroke="#000000" stroke-width="1" points="644,731 646,734 "/>
<polyline fill="none" opacity="1" stroke="#000000" stroke-width="1" points="789,731 792,733 "/>
<polyline fill="none" opacity="1" stroke="#000000" stroke-width="1" points="137,731 130,735 "/>
<polyline fill="none" opacity="1" stroke="#000000" stroke-width="1" points="282,731 276,737 "/>
<polyline fill="none" opacity="1" stroke="#000000" stroke-width="1" points="427,731 424,739 "/>
<polyline fill="none" opacity="1" stroke="#000000" stroke-width="1" points="572,731 575,739 "/>
<polyline fill="none" opacity="1" stroke="#000000" stroke-width="1" points="717,731 723,737 "/>
<polyline fill="none" opacity="1" stroke="#000000" stroke-width="1" points="862,731 869,735 "/>
<polyline fill="none" opacity="1" stroke="#000000" stroke-width="1" points="499,103 499,95 "/>
<polyline fill="none" opacity="1" stroke="#000000" stroke-width="1" points="572,229 574,221 "/>
<polyline fill="none" opacity="1" stroke="#000000" stroke-width="1" points="644,355 649,349 "/>
<polyline fill="none" opacity="1" stroke="#000000" stroke-width="1" points="717,480 725,478 "/>
<polyline fill="none" opacity="1" stroke="#000000" stroke-width="1" points="789,606 797,608 "/>
<polyline fill="none" opacity="1" stroke="#000000" stroke-width="1" points="862,731 869,735 "/>
<polyline fill="none" opacity="1" stroke="#000000" stroke-width="1" points="499,103 499,95 "/>
<polyline fill="none" opacity="1" stroke="#000000" stroke-width="1" points="427,229 425,221 "/>
<polyline fill="none" opacity="1" stroke="#000000" stroke-width="1" points="354,355 349,349 "/>
<polyline fill="none" opacity="1" stroke="#000000" stroke-width="1" points="282,480 274,478 "/>
<polyline fill="none" opacity="1" stroke="#000000" stroke-width="1" points="209,606 201,608 "/>
<polyline fill="none" opacity="1" stroke="#000000" stroke-width="1" points="137,731 130,735 "/>
<polyline fill="none" opacity="1" stroke="#6E6E78" stroke-width="2" points="528,611 548,606 572,592 603,562 623,522 625,461 624,452 622,448 611,438 568,403 508,397 487,404 447,432 430,452 410,508 409,522 411,535 446,592 454,600 466,604 528,611 "/>
<polyline fill="none" opacity="1" stroke="#6E6E78" stroke-width="2" points="501,666 497,666 482,662 430,643 382,599 377,594 376,592 374,585 361,522 367,471 372,452 375,446 408,400 420,385 424,383 483,355 520,347 561,350 594,358 631,383 649,401 673,452 677,492 676,522 670,539 643,592 629,608 594,636 572,649 522,662 501,666 "/>
<polyline fill="none" opacity="1" stroke="#6E6E78" stroke-width="2" points="735,511 734,522 725,549 709,592 705,600 669,646 658,659 655,662 599,696 549,715 532,719 466,718 448,714 400,693 359,662 346,648 315,592 309,572 304,522 309,473 314,452 343,392 351,383 394,341 437,313 454,304 466,300 526,290 553,289 613,301 "/>
<polyline fill="none" opacity="1" stroke="#DC6923" stroke-width="3" points="509,618 509,618 507,618 506,618 504,618 504,618 503,618 502,618 501,618 499,618 499,618 497,618 496,618 494,617 493,617 492,617 491,617 490,617 488,616 488,616 487,616 485,616 485,616 483,615 482,615 481,615 479,614 479,614 478,614 477,613 476,613 474,613 473,612 472,612 472,612 470,611 470,611 468,610 466,609 466,609 466,609 464,609 463,608 462,608 461,607 460,607 459,606 458,606 457,605 456,605 456,604 455,603 454,603 453,602 452,602 451,601 450,601 449,600 448,599 447,599 447,598 446,597 444,596 444,596 443,595 442,595 442,594 440,593 439,592 439,592 438,591 437,590 437,590 436,589 435,588 434,587 432,585 432,585 432,585 431,584 431,583 429,582 429,581 428,580 427,579 426,578 425,577 425,576 424,574 424,574 422,572 422,572 422,572 421,570 421,570 420,568 420,568 418,566 418,566 417,564 417,564 417,563 416,561 416,561 415,559 415,559 414,557 414,556 413,555 413,554 412,553 412,551 411,551 411,549 411,548 410,547 410,546 410,546 409,544 409,543 409,542 408,540 408,540 408,539 408,537 408,537 407,535 407,533 407,533 407,532 406,531 406,530 406,529 406,527 406,527 406,527 406,524 406,523 405,522 405,521 405,520 405,519 405,518 405,517 405,516 405,515 405,513 405,512 405,511 405,510 405,509 405,508 405,507 405,505 406,505 406,504 406,503 406,500 406,500 406,500 406,498 406,497 407,496 407,494 407,494 407,494 407,492 408,490 408,489 408,488 408,487 408,487 409,485 409,484 409,483 410,481 410,481 410,479 411,479 411,478 411,476 412,476 412,474 413,473 413,472 414,470 414,470 415,468 415,468 415,468 416,465 416,465 417,463 417,463 418,461 418,460 419,459 419,458 420,457 420,456 421,455 422,454 422,452 423,451 424,450 424,449 425,448 426,447 427,446 427,445 428,444 428,443 430,441 430,441 430,441 431,439 431,439 433,438 433,437 434,436 435,435 436,434 437,433 437,432 438,431 439,431 439,431 440,429 441,428 442,427 443,426 443,426 444,425 445,424 445,424 447,423 448,422 448,421 450,420 450,420 450,420 452,418 453,417 453,417 454,416 455,416 456,415 457,414 459,413 459,413 459,413 460,412 462,411 462,411 463,410 464,409 465,409 466,408 467,408 468,407 469,407 470,406 471,406 472,405 473,404 474,404 474,404 476,403 477,402 478,402 478,402 479,401 481,400 481,400 482,400 484,399 485,399 486,399 487,398 488,398 488,398 490,397 491,397 492,396 494,396 494,396 494,396 496,395 497,395 498,394 500,394 500,394 501,394 503,393 503,393 505,393 506,393 507,392 509,392 509,392 512,391 512,391 513,391 514,391 514,391 516,391 517,391 519,391 520,391 521,390 522,390 524,390 525,390 526,390 527,390 528,390 530,390 531,390 532,390 534,390 535,390 536,390 537,390 539,390 540,391 541,391 542,391 544,391 544,391 546,391 547,391 547,391 549,392 550,392 551,392 553,392 554,393 555,393 556,393 557,394 558,394 558,394 560,394 561,395 562,395 564,396 564,396 564,396 567,396 568,397 569,397 570,398 571,398 571,398 573,399 574,400 575,400 575,400 577,401 578,401 579,402 580,402 581,403 581,403 582,404 584,404 584,405 585,405 586,406 587,407 588,407 589,408 590,408 591,409 592,410 593,411 593,411 594,411 595,412 596,413 597,414 598,415 599,415 599,415 600,417 601,417 602,418 603,419 604,420 604,420 605,421 606,422 607,423 608,424 608,425 610,426 610,426 610,427 611,428 611,428 613,430 613,431 614,432 615,433 615,434 616,435 617,436 618,437 618,438 619,439 619,440 620,441 621,442 621,444 622,445 623,446 623,447 624,448 624,449 625,450 625,452 626,452 626,454 626,455 627,456 627,457 627,457 628,459 628,460 629,461 629,462 629,463 630,465 630,465 630,466 631,468 631,468 631,470 631,472 631,472 632,473 632,474 632,475 632,476 633,478 633,479 633,479 633,481 633,482 633,483 633,484 633,485 633,486 633,487 633,489 634,489 634,490 634,492 634,494 634,494 634,494 634,496 634,498 633,498 633,499 633,500 633,502 633,503 633,503 633,505 633,506 633,507 633,509 633,509 633,509 632,511 632,513 632,513 632,515 631,516 631,516 631,518 631,519 631,520 630,522 630,522 630,522 629,524 629,525 629,527 628,528 628,529 627,531 627,531 627,531 627,533 626,534 626,535 625,536 625,537 624,539 624,540 623,541 623,542 622,544 622,544 622,545 621,546 621,546 620,548 620,549 619,551 619,551 618,553 618,553 617,555 616,555 615,557 615,557 614,559 614,560 612,561 612,562 611,563 611,564 611,564 610,565 609,566 608,567 608,568 607,569 606,570 605,571 604,572 604,573 602,574 602,575 602,575 601,576 601,577 599,578 598,579 598,580 596,581 596,581 595,582 594,583 594,583 593,584 592,585 591,586 590,587 590,587 589,588 588,589 587,590 586,590 585,591 584,592 584,592 583,593 581,594 581,594 581,595 579,596 578,596 577,597 576,597 576,598 575,598 574,599 572,600 572,600 571,601 570,601 569,602 568,603 568,603 566,604 565,604 564,605 563,605 562,606 561,606 560,607 559,607 558,607 558,608 556,608 555,609 554,609 554,609 552,610 551,610 550,611 548,612 548,612 548,612 546,612 545,613 544,613 542,614 542,614 541,614 540,614 539,614 537,615 536,615 535,615 533,616 533,616 532,616 531,616 530,616 528,617 527,617 526,617 525,617 524,617 522,618 521,618 519,618 519,618 517,618 517,618 516,618 514,618 514,618 512,618 511,618 509,618 "/>
<polyline fill="none" opacity="1" stroke="#DC6923" stroke-width="3" points="504,667 506,667 507,667 509,667 509,667 511,667 512,667 514,667 514,667 516,666 517,666 519,666 519,666 521,666 522,666 522,666 524,666 524,666 526,665 527,665 529,665 530,665 531,665 533,664 533,664 535,664 536,664 536,664 538,664 538,663 540,663 541,663 542,663 544,662 544,662 546,662 547,661 547,661 549,661 550,661 551,660 553,660 553,660 553,660 555,659 556,659 557,658 559,658 560,658 560,657 562,657 562,657 564,656 566,655 566,655 566,655 568,654 569,654 570,654 571,653 572,653 572,653 574,652 576,651 576,651 576,651 578,650 579,649 580,649 581,649 582,648 583,648 584,647 585,646 586,646 586,646 588,645 589,644 589,644 590,644 591,643 593,642 593,642 594,641 595,641 596,640 597,639 598,639 599,638 600,638 601,637 602,636 602,636 603,636 604,635 606,633 606,633 606,633 608,632 609,631 610,631 610,630 611,629 612,629 613,628 614,627 615,627 615,626 616,625 617,625 618,624 620,622 620,622 620,622 621,621 622,620 623,619 624,618 625,618 625,617 626,616 627,616 628,615 629,614 630,613 631,612 631,612 631,611 633,610 633,609 634,608 635,607 636,607 637,605 637,605 638,604 639,603 639,603 640,601 641,601 642,599 643,598 643,598 644,596 645,596 646,594 646,594 647,592 648,592 648,592 649,590 649,590 650,588 651,588 652,586 652,585 653,584 654,583 654,582 655,581 656,580 656,579 657,578 658,577 658,576 659,574 659,573 660,572 661,571 661,570 662,569 662,568 663,567 664,566 664,564 665,564 665,562 666,561 667,559 667,559 667,558 668,557 668,557 669,555 669,554 669,553 670,552 670,551 671,549 671,548 672,547 672,546 673,544 673,544 673,544 673,542 674,541 674,540 675,538 675,537 675,536 675,535 676,534 676,533 676,533 677,531 677,530 677,529 678,527 678,527 678,527 678,524 678,523 679,522 679,520 679,520 679,520 680,518 680,517 680,516 680,513 680,513 680,513 681,511 681,510 681,509 681,508 681,507 681,506 681,505 682,503 682,503 682,502 682,500 682,499 682,498 682,498 682,496 682,495 682,494 682,493 682,492 682,490 682,489 682,488 682,487 682,486 682,485 682,484 682,483 682,481 682,481 682,480 682,479 682,477 682,476 682,476 681,474 681,472 681,472 681,471 681,470 681,469 681,468 680,466 680,465 680,465 680,463 680,462 680,461 679,460 679,459 679,459 679,457 679,455 678,455 678,453 678,452 678,452 677,450 677,449 677,448 676,446 676,446 676,445 675,444 675,443 675,441 674,441 674,439 674,438 673,437 673,435 672,435 672,434 672,433 672,433 671,431 671,430 670,428 669,428 669,426 668,425 668,424 667,423 667,422 666,420 666,420 665,418 665,417 664,416 663,415 662,414 662,413 661,411 661,411 660,409 659,409 658,407 658,407 657,405 657,404 656,403 655,402 654,401 654,400 653,399 652,398 652,397 650,396 650,396 650,395 649,394 648,394 647,392 646,391 646,390 645,389 644,389 643,387 642,387 642,387 641,385 640,385 639,384 638,383 638,382 637,381 636,381 636,380 634,379 633,378 633,378 631,376 631,376 631,376 629,375 628,374 628,373 627,373 626,372 625,372 624,371 622,370 622,369 622,369 621,368 619,367 619,367 618,366 617,366 616,365 615,365 614,364 613,363 613,363 611,362 610,362 610,361 609,361 608,360 607,360 606,359 605,359 604,358 603,358 602,357 600,356 600,356 599,356 598,355 596,355 596,354 595,354 594,354 593,353 592,353 590,352 590,352 589,352 588,351 586,351 586,350 584,350 583,350 583,350 581,349 580,349 579,348 577,348 577,348 577,348 575,347 574,347 573,347 571,346 570,346 569,346 568,345 568,345 566,345 565,345 564,345 562,344 561,344 560,344 559,344 557,343 557,343 557,343 555,343 554,343 552,343 551,343 550,343 549,342 547,342 546,342 545,342 544,342 543,342 541,342 540,342 538,342 538,342 536,342 535,342 533,342 533,342 531,342 530,342 528,342 528,342 526,342 525,342 523,342 522,342 521,342 520,342 519,342 517,343 516,343 514,343 514,343 512,343 512,343 511,343 509,344 509,344 507,344 506,344 505,344 503,345 502,345 500,345 500,345 499,346 498,346 498,346 496,346 495,346 493,347 492,347 491,347 490,348 489,348 489,348 487,348 486,349 485,349 483,350 483,350 482,350 480,350 480,351 478,351 476,352 476,352 476,352 474,353 473,353 472,353 470,354 470,354 470,354 468,355 467,356 466,356 465,356 464,357 463,357 462,358 460,359 460,359 460,359 458,360 456,360 456,361 456,361 454,362 453,362 452,363 451,363 450,364 449,364 448,365 448,365 446,366 445,366 445,367 444,367 443,368 442,369 441,369 440,370 439,370 438,371 437,372 437,372 435,373 434,374 434,374 433,374 432,375 431,376 430,377 429,377 428,378 428,378 427,379 425,380 425,381 425,381 423,382 422,383 421,383 420,385 420,385 420,385 418,386 417,387 416,388 415,389 415,389 415,389 413,391 412,391 411,392 410,394 410,394 409,395 408,395 408,396 407,397 406,398 405,399 404,400 404,400 403,401 402,402 402,402 400,404 400,404 399,406 398,407 397,407 396,409 396,409 395,411 395,411 395,411 393,413 393,413 392,415 391,415 390,417 390,417 389,419 388,420 387,421 387,422 386,423 385,424 385,425 384,426 383,427 382,428 382,429 381,431 381,431 380,433 380,433 379,435 378,435 377,437 377,438 376,439 376,440 375,441 375,442 374,444 374,444 373,446 372,447 372,448 371,449 371,450 370,452 370,452 369,454 369,455 369,456 368,457 368,457 367,459 367,460 367,461 366,462 366,463 365,465 365,465 365,467 364,468 364,468 364,470 364,471 363,472 363,474 363,474 362,476 362,476 362,477 361,479 361,480 361,481 360,483 360,483 360,483 360,485 360,486 360,487 359,489 359,489 359,490 359,492 359,493 358,494 358,496 358,496 358,496 358,498 358,500 358,500 358,501 357,503 357,503 357,505 357,506 357,507 357,507 357,509 357,511 357,511 357,511 357,513 357,516 357,516 357,516 357,518 357,520 357,520 357,520 357,522 357,524 357,524 357,524 357,527 357,528 357,529 357,529 357,531 357,532 357,533 358,534 358,535 358,536 358,537 358,539 358,540 358,540 359,542 359,543 359,544 359,546 359,546 359,546 360,548 360,549 360,551 361,553 361,553 361,553 361,555 361,556 362,557 362,559 362,559 363,561 363,561 363,562 364,564 364,565 364,566 365,567 365,568 366,570 366,570 366,571 366,572 367,573 367,574 368,575 368,577 369,578 369,579 370,580 370,581 371,583 371,583 372,585 372,585 373,588 373,588 374,589 374,590 374,590 376,592 376,592 377,594 377,594 378,596 378,596 379,598 379,599 380,599 381,601 381,601 382,603 382,603 383,605 384,605 385,607 385,607 386,609 387,609 388,610 389,612 389,612 390,614 391,614 392,615 392,616 392,616 394,618 394,618 395,619 396,620 397,621 398,622 398,623 399,623 400,624 400,625 401,626 402,627 403,627 404,629 405,629 405,629 406,630 407,631 408,632 409,633 410,633 410,633 411,635 413,636 413,636 414,637 415,637 415,638 417,639 418,640 418,640 418,640 420,641 422,642 422,642 423,643 424,644 425,644 426,645 427,645 428,646 429,646 429,647 430,647 431,648 432,649 433,649 434,650 435,650 437,651 437,651 438,651 439,652 441,653 441,653 441,653 443,654 445,655 445,655 446,655 447,656 448,656 449,656 451,657 451,657 452,657 453,658 454,658 455,659 457,659 458,659 458,660 460,660 460,660 462,661 463,661 464,661 465,662 466,662 466,662 468,663 469,663 471,663 472,663 473,664 475,664 475,664 475,664 477,664 478,665 480,665 481,665 482,665 484,665 484,666 486,666 487,666 489,666 489,666 489,666 491,666 492,666 494,666 494,667 496,667 497,667 499,667 499,667 501,667 502,667 504,667 504,667 "/>
<polyline fill="none" opacity="1" stroke="#DC6923" stroke-width="3" points="736,514 736,516 736,518 736,518 736,518 735,520 735,521 735,522 735,524 735,524 735,525 734,527 734,528 734,529 733,531 733,531 733,531 733,533 733,534 732,535 732,537 732,537 732,538 731,540 731,540 731,542 730,543 730,544 729,546 729,546 729,546 729,548 729,549 728,551 728,552 727,553 727,555 727,555 726,556 726,557 726,557 725,559 725,560 724,561 724,563 724,564 723,565 723,566 722,567 722,568 722,568 721,570 721,571 720,572 720,573 719,574 719,576 718,577 718,578 717,579 716,581 716,581 715,583 715,583 714,585 714,585 714,587 713,588 713,588 712,590 712,590 711,592 711,592 710,594 709,595 708,596 708,597 707,598 707,599 706,601 706,601 705,603 704,603 703,605 703,605 702,607 702,608 701,609 701,610 699,612 699,612 698,613 698,614 698,614 696,616 696,616 695,618 695,618 694,620 693,620 692,622 692,622 691,624 690,625 690,625 688,627 688,627 687,629 687,629 686,630 685,631 685,631 684,633 683,633 682,635 681,636 681,636 680,638 679,638 678,640 678,640 678,640 676,642 676,642 675,643 674,644 673,645 672,646 672,647 671,648 670,648 670,649 668,650 668,651 667,652 665,653 665,653 665,654 664,655 663,655 662,656 661,657 660,658 659,659 659,659 659,660 657,661 656,662 655,662 654,664 654,664 654,664 652,665 651,666 650,667 649,668 649,668 649,668 647,670 646,670 645,671 644,672 644,672 643,673 642,674 640,675 640,675 640,675 638,676 637,677 637,678 635,679 635,679 634,679 633,680 631,681 631,681 631,681 629,683 628,684 628,684 627,684 626,685 625,686 624,686 623,687 622,687 621,688 620,689 619,689 618,690 618,690 616,691 615,692 615,692 614,692 613,693 611,694 611,694 610,694 609,695 608,696 607,696 606,697 605,697 604,698 603,698 602,699 601,699 601,699 599,700 597,701 597,701 597,701 595,702 594,703 593,703 593,703 591,704 590,704 589,705 588,705 587,705 587,706 585,706 584,707 583,707 582,708 581,708 580,708 579,709 577,709 577,710 576,710 575,710 574,711 573,711 571,712 571,712 570,712 569,712 568,713 566,713 565,714 564,714 563,714 562,714 562,714 560,715 559,715 558,716 556,716 556,716 555,716 553,717 553,717 551,717 550,718 549,718 547,718 547,718 546,718 545,719 544,719 542,719 541,719 540,720 538,720 538,720 536,720 535,720 534,721 533,721 533,721 531,721 530,721 528,721 527,722 526,722 525,722 524,722 522,722 521,722 519,722 519,722 517,723 517,723 515,723 514,723 514,723 512,723 511,723 509,723 509,723 507,723 506,723 504,723 504,723 502,723 501,723 499,723 499,723 497,723 496,723 494,723 494,723 492,723 491,723 489,723 489,723 486,723 486,723 485,723 484,723 484,723 482,723 481,722 479,722 479,722 477,722 476,722 474,722 473,722 472,721 470,721 470,721 468,721 467,721 466,721 465,720 465,720 463,720 462,720 461,720 459,719 458,719 456,719 456,719 455,718 454,718 454,718 452,718 451,717 449,717 448,717 447,717 446,716 445,716 445,716 443,715 442,715 441,715 439,714 439,714 439,714 436,713 435,713 434,713 432,712 432,712 432,712 430,711 429,711 428,710 426,710 426,710 426,710 424,709 423,708 422,708 421,708 420,707 419,707 418,706 416,705 416,705 416,705 414,705 413,704 412,704 411,703 410,703 409,702 408,702 407,701 406,701 405,700 404,700 403,699 402,699 402,698 400,698 399,697 398,696 398,696 397,695 395,694 395,694 394,694 393,693 392,692 391,692 390,691 389,691 388,690 387,689 386,689 386,688 385,688 384,687 382,686 382,686 382,686 380,684 379,684 378,683 378,682 377,682 376,681 375,680 373,679 373,679 373,679 372,678 371,677 370,676 368,675 368,675 368,675 366,673 366,673 365,672 363,670 363,670 363,670 362,669 361,668 360,667 359,666 358,666 357,664 357,664 357,664 355,662 355,662 354,661 353,660 352,659 351,657 351,657 350,657 349,655 349,655 348,654 347,653 346,652 345,651 345,650 343,649 343,648 342,646 342,646 342,646 340,645 340,644 339,643 338,642 337,641 337,640 336,639 335,638 335,637 334,636 333,635 333,633 332,633 331,631 331,631 330,629 329,628 329,627 328,626 327,625 327,624 326,622 326,622 325,620 324,620 324,618 323,617 323,616 322,615 321,614 321,613 320,612 320,610 319,609 319,608 318,607 318,605 317,605 317,603 316,603 316,603 316,601 315,600 315,598 314,598 314,596 313,595 313,594 312,592 312,592 312,590 312,590 312,590 311,588 311,587 310,585 310,584 309,583 309,581 309,581 309,581 308,579 308,578 308,577 307,575 307,574 306,572 306,572 306,572 306,570 306,569 305,568 305,566 305,566 305,565 305,564 304,563 304,561 304,559 304,559 304,559 303,557 303,556 303,555 303,553 303,553 303,553 302,551 302,549 302,548 302,547 302,546 302,546 302,544 301,542 301,542 301,542 301,540 301,538 301,537 301,537 301,535 301,534 301,533 301,532 301,531 301,530 301,529 301,527 301,527 301,526 300,524 300,523 300,522 300,522 300,520 300,518 301,518 301,517 301,516 301,514 301,513 301,512 301,511 301,510 301,509 301,508 301,507 301,506 301,505 301,503 301,503 301,502 302,500 302,499 302,498 302,497 302,496 302,495 302,494 303,492 303,492 303,492 303,489 303,488 303,487 303,486 304,485 304,485 304,483 304,481 304,481 305,480 305,479 305,478 305,476 306,475 306,474 306,473 306,472 306,472 307,470 307,469 307,468 308,466 308,465 308,465 308,463 309,463 309,461 309,460 310,459 310,457 310,457 310,456 311,455 311,454 312,452 312,451 312,450 313,448 313,448 314,446 314,446 314,446 315,444 315,443 316,441 316,440 316,439 317,438 317,437 318,435 318,435 319,433 319,433 319,432 320,431 320,430 321,428 321,428 322,426 322,425 323,424 323,423 324,422 325,421 325,420 326,418 326,417 327,416 327,415 328,414 329,413 329,412 330,411 331,409 331,409 332,407 332,407 333,405 334,404 334,403 335,402 336,401 336,400 337,399 338,398 338,397 339,396 340,395 340,394 341,393 342,391 342,391 343,389 344,389 345,387 345,387 347,385 347,385 347,384 348,383 348,383 350,381 350,380 351,379 352,378 352,377 353,376 354,375 355,374 355,374 356,372 357,372 357,372 358,370 359,370 360,368 361,367 361,367 363,365 363,365 364,364 364,363 365,363 366,362 367,361 368,360 369,359 369,358 370,357 371,357 371,356 372,355 373,354 374,354 376,352 376,352 376,352 377,350 378,350 379,349 380,348 381,347 381,347 382,346 383,346 384,345 385,343 386,343 386,343 387,342 388,341 389,340 391,339 391,339 391,339 392,338 393,337 394,336 395,335 396,335 396,335 398,334 399,332 399,332 400,332 401,331 402,330 403,330 404,329 405,328 405,328 407,327 408,326 408,326 408,326 410,325 412,324 412,324 412,323 414,322 415,322 416,321 416,321 418,320 419,319 419,319 420,319 421,318 423,317 423,317 424,316 425,316 427,315 427,315 428,314 429,314 431,313 431,313 431,313 433,312 435,311 435,311 435,311 437,310 438,309 439,309 439,308 441,308 442,307 443,307 444,306 445,306 445,306 447,305 448,304 449,304 449,304 451,303 452,303 453,303 455,302 455,302 455,302 457,301 458,300 459,300 460,300 461,299 461,299 463,299 465,298 465,298 467,298 467,297 468,297 470,297 471,296 472,296 474,295 474,295 474,295 476,295 477,294 478,294 480,294 480,293 481,293 482,293 483,293 485,292 486,292 487,292 489,291 489,291 490,291 491,291 492,291 494,290 494,290 496,290 497,290 498,289 500,289 500,289 502,289 503,289 503,289 505,288 506,288 507,288 508,288 510,288 511,287 512,287 514,287 514,287 517,287 517,287 519,287 519,287 519,287 522,286 522,286 524,286 524,286 526,286 527,286 529,286 530,286 531,286 532,286 534,286 535,286 536,286 537,286 539,286 540,286 541,286 542,286 544,286 545,286 546,286 547,286 549,286 550,286 552,286 552,286 554,286 555,286 557,286 557,286 559,287 559,287 559,287 562,287 562,287 564,287 565,287 567,287 568,288 569,288 570,288 571,288 573,288 573,288 576,289 576,289 576,289 578,289 579,289 580,290 581,290 583,290 584,291 585,291 587,291 587,291 587,291 589,292 590,292 591,292 593,293 594,293 595,293 596,293 596,293 598,294 599,294 600,295 602,295 602,295 603,295 604,296 605,296 607,297 608,297 609,297 609,298 611,298 611,298 "/>
<polyline fill="none" opacity="1" stroke="#1469BE" stroke-width="3" points="524,618 534,616 543,613 553,610 563,608 572,603 580,598 588,591 595,584 602,577 608,569 613,561 618,552 622,543 627,534 630,524 633,514 634,505 634,494 634,484 633,474 631,465 627,455 623,446 617,438 611,430 604,423 597,416 589,409 581,403 572,398 563,396 553,395 543,394 533,393 523,393 512,392 502,393 493,396 483,398 474,402 465,406 457,412 449,419 442,426 435,433 429,441 423,449 418,458 414,467 410,476 406,486 402,495 402,505 403,515 405,525 406,535 409,545 414,553 419,562 423,571 428,580 433,588 440,596 449,601 457,607 465,613 474,617 484,617 494,618 504,618 514,618 524,618 "/>
<polyline fill="none" opacity="1" stroke="#1469BE" stroke-width="3" points="502,667 492,666 482,665 472,664 462,661 452,658 443,654 434,650 425,645 417,639 409,633 402,626 395,619 388,611 382,603 377,594 372,585 368,576 364,567 362,557 359,547 358,537 357,527 356,517 357,507 357,497 359,487 361,477 364,467 367,458 372,449 377,440 382,432 388,423 394,415 400,407 406,399 413,392 420,384 428,378 435,372 444,366 453,361 462,357 471,353 481,350 491,348 500,345 510,344 520,342 530,342 541,342 551,343 561,343 570,346 580,349 589,353 599,357 608,361 617,366 625,372 632,379 638,387 645,394 651,402 656,411 661,420 665,429 669,438 673,448 676,457 678,467 680,477 682,487 682,497 682,507 680,517 677,527 675,537 672,546 667,555 663,564 658,573 653,582 648,591 642,599 636,607 629,614 622,622 615,628 607,635 598,640 589,645 580,649 571,653 561,656 552,659 542,662 532,664 522,665 512,666 502,667 "/>
<polyline fill="none" opacity="1" stroke="#1469BE" stroke-width="3" points="736,515 733,524 731,534 728,544 725,553 723,563 719,573 715,582 711,591 706,600 701,609 695,617 689,625 683,633 677,641 670,648 663,655 656,662 648,669 640,675 631,680 623,685 614,690 605,695 596,700 587,704 578,708 568,712 559,715 549,716 539,718 529,719 519,719 509,719 498,719 488,719 478,719 468,719 458,717 448,715 439,713 429,710 420,706 411,702 402,697 393,691 385,686 376,681 368,675 360,668 354,661 347,653 341,645 336,636 332,627 327,618 322,609 317,601 312,592 309,582 306,572 304,563 303,553 302,543 302,532 302,522 302,512 303,502 304,492 306,482 308,473 311,463 313,453 317,444 321,435 326,425 330,416 335,407 340,399 345,390 351,382 357,374 363,366 370,359 378,352 385,346 394,340 402,334 410,328 418,322 427,316 435,311 444,307 453,303 463,299 472,296 482,293 492,291 502,289 512,287 522,286 532,286 542,287 552,287 562,288 572,290 582,292 592,294 602,296 611,298 "/>
<polygon opacity="0.55" fill="#1E2837" points="865,731 865,730 865,730 864,729 864,729 864,729 863,728 863,728 862,728 861,728 861,728 860,729 860,729 860,729 859,730 859,730 859,731 859,732 859,732 860,733 860,733 860,733 861,734 861,734 862,734 863,734 863,734 864,733 864,733 864,733 865,732 865,732 "/>
<polygon opacity="0.55" fill="#1E2837" points="623,731 623,730 623,730 622,729 622,729 622,729 621,728 621,728 620,728 619,728 619,728 618,729 618,729 618,729 617,730 617,730 617,731 617,732 617,732 618,733 618,733 618,733 619,734 619,734 620,734 621,734 621,734 622,733 622,733 622,733 623,732 623,732 "/>
<polygon opacity="0.55" fill="#1E2837" points="381,731 381,730 381,730 380,729 380,729 380,729 379,728 379,728 378,728 377,728 377,728 376,729 376,729 376,729 375,730 375,730 375,731 375,732 375,732 376,733 376,733 376,733 377,734 377,734 378,734 379,734 379,734 380,733 380,733 380,733 381,732 381,732 "/>
<polygon opacity="0.55" fill="#1E2837" points="140,731 140,730 140,730 139,729 139,729 139,729 138,728 138,728 137,728 136,728 136,728 135,729 135,729 135,729 134,730 134,730 134,731 134,732 134,732 135,733 135,733 135,733 136,734 136,734 137,734 138,734 138,734 139,733 139,733 139,733 140,732 140,732 "/>
<polygon opacity="0.55" fill="#1E2837" points="663,662 663,661 663,661 662,660 662,660 662,660 661,659 661,659 660,659 659,659 659,659 658,660 658,660 658,660 657,661 657,661 657,662 657,663 657,663 658,664 658,664 658,664 659,665 659,665 660,665 661,665 661,665 662,664 662,664 662,664 663,663 663,663 "/>
<polygon opacity="0.55" fill="#1E2837" points="421,662 421,661 421,661 420,660 420,660 420,660 419,659 419,659 418,659 417,659 417,659 416,660 416,660 416,660 415,661 415,661 415,662 415,663 415,663 416,664 416,664 416,664 417,665 417,665 418,665 419,665 419,665 420,664 420,664 420,664 421,663 421,663 "/>
<polygon opacity="0.55" fill="#1E2837" points="180,662 180,661 180,661 179,660 179,660 179,660 178,659 178,659 177,659 176,659 176,659 175,660 175,660 175,660 174,661 174,661 174,662 174,663 174,663 175,664 175,664 175,664 176,665 176,665 177,665 178,665 178,665 179,664 179,664 179,664 180,663 180,663 "/>
<polygon opacity="0.55" fill="#1E2837" points="623,592 623,591 623,591 622,590 622,590 622,590 621,589 621,589 620,589 619,589 619,589 618,590 618,590 618,590 617,591 617,591 617,592 617,593 617,593 618,594 618,594 618,594 619,595 619,595 620,595 621,595 621,595 622,594 622,594 622,594 623,593 623,593 "/>
<polygon opacity="0.55" fill="#1E2837" points="381,592 381,591 381,591 380,590 380,590 380,590 379,589 379,589 378,589 377,589 377,589 376,590 376,590 376,590 375,591 375,591 375,592 375,593 375,593 376,594 376,594 376,594 377,595 377,595 378,595 379,595 379,595 380,594 380,594 380,594 381,593 381,593 "/>
<polygon opacity="0.55" fill="#1E2837" points="744,522 744,521 744,521 743,520 743,520 743,520 742,519 742,519 741,519 740,519 740,519 739,520 739,520 739,520 738,521 738,521 738,522 738,523 738,523 739,524 739,524 739,524 740,525 740,525 741,525 742,525 742,525 743,524 743,524 743,524 744,523 744,523 "/>
<polygon opacity="0.55" fill="#1E2837" points="502,522 502,521 502,521 501,520 501,520 501,520 500,519 500,519 499,519 498,519 498,519 497,520 497,520 497,520 496,521 496,521 496,522 496,523 496,523 497,524 497,524 497,524 498,525 498,525 499,525 500,525 500,525 501,524 501,524 501,524 502,523 502,523 "/>
<polygon opacity="0.55" fill="#1E2837" points="260,522 260,521 260,521 259,520 259,520 259,520 258,519 258,519 257,519 256,519 256,519 255,520 255,520 255,520 254,521 254,521 254,522 254,523 254,523 255,524 255,524 255,524 256,525 256,525 257,525 258,525 258,525 259,524 259,524 259,524 260,523 260,523 "/>
<polygon opacity="0.55" fill="#1E2837" points="542,452 542,451 542,451 541,450 541,450 541,450 540,449 540,449 539,449 538,449 538,449 537,450 537,450 537,450 536,451 536,451 536,452 536,453 536,453 537,454 537,454 537,454 538,455 538,455 539,455 540,455 540,455 541,454 541,454 541,454 542,453 542,453 "/>
<polygon opacity="0.55" fill="#1E2837" points="301,452 301,451 301,451 300,450 300,450 300,450 299,449 299,449 298,449 297,449 297,449 296,450 296,450 296,450 295,451 295,451 295,452 295,453 295,453 296,454 296,454 296,454 297,455 297,455 298,455 299,455 299,455 300,454 300,454 300,454 301,453 301,453 "/>
<polygon opacity="0.55" fill="#1E2837" points="502,383 502,382 502,382 501,381 501,381 501,381 500,380 500,380 499,380 498,380 498,380 497,381 497,381 497,381 496,382 496,382 496,383 496,384 496,384 497,385 497,385 497,385 498,386 498,386 499,386 500,386 500,386 501,385 501,385 501,385 502,384 502,384 "/>
<polygon opacity="0.55" fill="#1E2837" points="623,313 623,312 623,312 622,311 622,311 622,311 621,310 621,310 620,310 619,310 619,310 618,311 618,311 618,311 617,312 617,312 617,313 617,314 617,314 618,315 618,315 618,315 619,316 619,316 620,316 621,316 621,316 622,315 622,315 622,315 623,314 623,314 "/>
<polygon opacity="0.55" fill="#1E2837" points="381,313 381,312 381,312 380,311 380,311 380,311 379,310 379,310 378,310 377,310 377,310 376,311 376,311 376,311 375,312 375,312 375,313 375,314 375,314 376,315 376,315 376,315 377,316 377,316 378,316 379,316 379,316 380,315 380,315 380,315 381,314 381,314 "/>
<polygon opacity="0.55" fill="#1E2837" points="421,243 421,242 421,242 420,241 420,241 420,241 419,240 419,240 418,240 417,240 417,240 416,241 416,241 416,241 415,242 415,242 415,243 415,244 415,244 416,245 416,245 416,245 417,246 417,246 418,246 419,246 419,246 420,245 420,245 420,245 421,244 421,244 "/>
<polygon opacity="0.55" fill="#1E2837" points="502,103 502,102 502,102 501,101 501,101 501,101 500,100 500,100 499,100 498,100 498,100 497,101 497,101 497,101 496,102 496,102 496,103 496,104 496,104 497,105 497,105 497,105 498,106 498,106 499,106 500,106 500,106 501,105 501,105 501,105 502,104 502,104 "/>
<rect x="564" y="108" width="294" height="96" opacity="0.9" fill="#FFFFFF" stroke="none"/>
<rect x="564" y="108" width="294" height="96" opacity="1" fill="none" stroke="#000000"/>
<polyline fill="none" opacity="1" stroke="#6E6E78" stroke-width="2" points="576,129 610,129 "/>
<polyline fill="none" opacity="1" stroke="#DC6923" stroke-width="3" points="576,157 610,157 "/>
<polyline fill="none" opacity="1" stroke="#1469BE" stroke-width="3" points="576,184 610,184 "/>
</g>
<g id="ternary-text">

<text x="500" y="5" dy="0.76em" text-anchor="middle" font-family="sans-serif" font-size="25.806451612903228" opacity="1" fill="#000000" font-weight="bold">
Linear and cubic-alpha contour comparison
</text>
<text x="276" y="737" dy="0.76em" text-anchor="end" font-family="sans-serif" font-size="13.709677419354838" opacity="1" fill="#192332">
20%
</text>
<text x="424" y="739" dy="0.76em" text-anchor="end" font-family="sans-serif" font-size="13.709677419354838" opacity="1" fill="#192332">
40%
</text>
<text x="575" y="739" dy="0.76em" text-anchor="start" font-family="sans-serif" font-size="13.709677419354838" opacity="1" fill="#192332">
60%
</text>
<text x="723" y="737" dy="0.76em" text-anchor="start" font-family="sans-serif" font-size="13.709677419354838" opacity="1" fill="#192332">
80%
</text>
<text x="574" y="221" dy="-0.5ex" text-anchor="start" font-family="sans-serif" font-size="13.709677419354838" opacity="1" fill="#192332">
0.2
</text>
<text x="649" y="349" dy="-0.5ex" text-anchor="start" font-family="sans-serif" font-size="13.709677419354838" opacity="1" fill="#192332">
0.4
</text>
<text x="725" y="478" dy="-0.5ex" text-anchor="start" font-family="sans-serif" font-size="13.709677419354838" opacity="1" fill="#192332">
0.6
</text>
<text x="797" y="608" dy="0.76em" text-anchor="start" font-family="sans-serif" font-size="13.709677419354838" opacity="1" fill="#192332">
0.8
</text>
<text x="425" y="221" dy="-0.5ex" text-anchor="end" font-family="sans-serif" font-size="13.709677419354838" opacity="1" fill="#192332">
0.2
</text>
<text x="349" y="349" dy="-0.5ex" text-anchor="end" font-family="sans-serif" font-size="13.709677419354838" opacity="1" fill="#192332">
0.4
</text>
<text x="274" y="478" dy="-0.5ex" text-anchor="end" font-family="sans-serif" font-size="13.709677419354838" opacity="1" fill="#192332">
0.6
</text>
<text x="201" y="608" dy="0.76em" text-anchor="end" font-family="sans-serif" font-size="13.709677419354838" opacity="1" fill="#192332">
0.8
</text>
<text x="499" y="755" dy="0.5ex" text-anchor="middle" font-family="sans-serif" font-size="20.161290322580644" opacity="1" fill="#192332" font-weight="bold">
A component
</text>
<text x="499" y="87" dy="-0.5ex" text-anchor="middle" font-family="sans-serif" font-size="22.580645161290324" opacity="1" fill="#192332" font-weight="bold">
A
</text>
<text x="123" y="739" dy="0.76em" text-anchor="end" font-family="sans-serif" font-size="22.580645161290324" opacity="1" fill="#192332" font-weight="bold">
B
</text>
<text x="876" y="739" dy="0.76em" text-anchor="start" font-family="sans-serif" font-size="22.580645161290324" opacity="1" fill="#192332" font-weight="bold">
C
</text>
<text x="622" y="120" dy="0.76em" text-anchor="start" font-family="sans-serif" font-size="17.741935483870968" opacity="1" fill="#000000">
Linear
</text>
<text x="622" y="148" dy="0.76em" text-anchor="start" font-family="sans-serif" font-size="17.741935483870968" opacity="1" fill="#000000">
Akima + Muggianu
</text>
<text x="622" y="175" dy="0.76em" text-anchor="start" font-family="sans-serif" font-size="17.741935483870968" opacity="1" fill="#000000">
Steffen + Kohler, regularized
</text>
<text x="701" y="405" text-anchor="middle" dominant-baseline="middle" transform="rotate(59.970994 701 405)" font-family="sans-serif" font-size="25" fill="#192332" fill-opacity="1.000000" font-weight="bold">B component</text>
<text x="297" y="405" text-anchor="middle" dominant-baseline="middle" transform="rotate(-60.039427 297 405)" font-family="sans-serif" font-size="25" fill="#192332" fill-opacity="1.000000" font-weight="bold">C component</text>
</g>
</svg>
