<svg width="1000" height="800" viewBox="0 0 1000 800" xmlns="http://www.w3.org/2000/svg">
<g id="ternary-geometry" shape-rendering="geometricPrecision" stroke-linecap="round" stroke-linejoin="round">

<rect x="0" y="0" width="1000" height="800" opacity="1" fill="#FFFFFF" stroke="none"/>
<polyline fill="none" opacity="1" stroke="#B9BEC6" stroke-width="1" points="199,612 799,612 "/>
<polyline fill="none" opacity="1" stroke="#B9BEC6" stroke-width="1" points="274,482 724,482 "/>
<polyline fill="none" opacity="1" stroke="#B9BEC6" stroke-width="1" points="349,353 649,353 "/>
<polyline fill="none" opacity="1" stroke="#B9BEC6" stroke-width="1" points="424,223 574,223 "/>
<polyline fill="none" opacity="1" stroke="#B9BEC6" stroke-width="1" points="424,223 724,741 "/>
<polyline fill="none" opacity="1" stroke="#B9BEC6" stroke-width="1" points="349,353 574,741 "/>
<polyline fill="none" opacity="1" stroke="#B9BEC6" stroke-width="1" points="274,482 424,741 "/>
<polyline fill="none" opacity="1" stroke="#B9BEC6" stroke-width="1" points="199,612 274,741 "/>
<polyline fill="none" opacity="1" stroke="#B9BEC6" stroke-width="1" points="574,223 274,741 "/>
<polyline fill="none" opacity="1" stroke="#B9BEC6" stroke-width="1" points="649,353 424,741 "/>
<polyline fill="none" opacity="1" stroke="#B9BEC6" stroke-width="1" points="724,482 574,741 "/>
<polyline fill="none" opacity="1" stroke="#B9BEC6" stroke-width="1" points="799,612 724,741 "/>
<polyline fill="none" opacity="1" stroke="#000000" stroke-width="2" points="125,741 874,741 "/>
<polyline fill="none" opacity="1" stroke="#000000" stroke-width="2" points="874,741 499,93 "/>
<polyline fill="none" opacity="1" stroke="#000000" stroke-width="2" points="499,93 125,741 "/>
<polygon opacity="0.88" fill="#2B71B4" points="525,603 526,603 529,603 570,586 603,562 607,558 608,556 619,533 630,510 630,506 628,464 619,441 603,417 587,404 566,395 543,388 510,390 484,397 466,407 453,417 433,442 422,464 414,502 414,510 415,516 431,556 439,567 463,586 477,595 520,603 "/>
<polygon opacity="0.88" fill="#38A484" points="508,665 545,662 558,659 583,649 601,640 618,628 638,612 646,603 668,572 677,556 690,517 692,510 693,498 693,464 684,421 683,417 656,377 651,371 619,348 583,331 577,329 541,325 527,324 525,324 518,325 477,334 464,339 435,354 412,371 399,383 373,417 369,425 356,464 353,488 352,510 354,529 361,556 375,587 386,603 406,625 440,649 444,651 448,653 491,664 "/>
<polygon opacity="0.88" fill="#F4B53F" points="509,724 541,721 567,716 587,709 619,695 630,690 640,682 667,661 679,649 699,626 715,603 727,581 738,556 748,524 740,510 713,464 686,417 660,371 633,325 606,279 604,276 559,268 546,267 504,269 494,271 463,279 448,283 441,286 407,305 378,325 369,332 348,355 339,371 312,417 305,428 296,464 294,480 293,510 296,538 299,556 313,600 315,603 341,644 345,649 375,677 401,695 414,703 426,708 459,718 488,723 "/>
<polygon opacity="0.88" fill="#D24E46" points="650,741 657,738 665,732 694,709 710,695 729,676 750,649 759,636 778,603 785,588 767,556 748,524 738,556 727,581 715,603 699,626 679,649 667,661 640,682 630,690 619,695 587,709 567,716 541,721 509,724 488,723 459,718 426,708 414,703 401,695 375,677 345,649 341,644 315,603 313,600 299,556 296,538 293,510 294,480 296,464 305,428 285,464 258,510 239,544 240,556 247,584 253,603 255,608 275,649 280,657 309,695 310,697 316,702 346,728 366,741 392,741 446,741 499,741 553,741 606,741 "/>
<polygon opacity="0.88" fill="#D24E46" points="348,355 369,332 378,325 407,305 441,286 448,283 463,279 494,271 504,269 546,267 559,268 604,276 579,232 568,213 538,212 514,213 481,217 466,221 428,232 420,235 416,237 392,279 365,325 "/>
<polygon opacity="0.88" fill="#7C4199" points="874,741 847,695 820,649 793,603 785,588 778,603 759,636 750,649 729,676 710,695 694,709 665,732 657,738 650,741 660,741 713,741 767,741 820,741 "/>
<polygon opacity="0.88" fill="#7C4199" points="366,741 346,728 316,702 310,697 309,695 280,657 275,649 255,608 253,603 247,584 240,556 239,544 232,556 205,603 178,649 151,695 125,741 178,741 232,741 285,741 339,741 "/>
<polygon opacity="0.88" fill="#7C4199" points="416,237 420,235 428,232 466,221 481,217 514,213 538,212 568,213 553,186 526,140 499,93 472,140 446,186 419,232 "/>
<polyline fill="none" opacity="0.64" stroke="#000000" stroke-width="2" points="525,603 526,603 529,603 570,586 603,562 607,558 608,556 619,533 630,510 630,506 628,464 619,441 603,417 587,404 566,395 543,388 510,390 484,397 466,407 453,417 433,442 422,464 414,502 414,510 415,516 431,556 439,567 463,586 477,595 520,603 525,603 "/>
<polyline fill="none" opacity="0.64" stroke="#000000" stroke-width="2" points="508,665 491,664 448,653 444,651 440,649 406,625 386,603 375,587 361,556 354,529 352,510 353,488 356,464 369,425 373,417 399,383 412,371 435,354 464,339 477,334 518,325 525,324 527,324 541,325 577,329 583,331 619,348 651,371 656,377 683,417 684,421 693,464 693,498 692,510 690,517 677,556 668,572 646,603 638,612 618,628 601,640 583,649 558,659 545,662 508,665 "/>
<polyline fill="none" opacity="0.64" stroke="#000000" stroke-width="2" points="748,524 738,556 727,581 715,603 699,626 679,649 667,661 640,682 630,690 619,695 587,709 567,716 541,721 509,724 488,723 459,718 426,708 414,703 401,695 375,677 345,649 341,644 315,603 313,600 299,556 296,538 293,510 294,480 296,464 305,428 "/>
<polyline fill="none" opacity="0.64" stroke="#000000" stroke-width="2" points="348,355 369,332 378,325 407,305 441,286 448,283 463,279 494,271 504,269 546,267 559,268 604,276 "/>
<polyline fill="none" opacity="0.64" stroke="#000000" stroke-width="2" points="650,741 657,738 665,732 694,709 710,695 729,676 750,649 759,636 778,603 785,588 "/>
<polyline fill="none" opacity="0.64" stroke="#000000" stroke-width="2" points="366,741 346,728 316,702 310,697 309,695 280,657 275,649 255,608 253,603 247,584 240,556 239,544 "/>
<polyline fill="none" opacity="0.64" stroke="#000000" stroke-width="2" points="416,237 420,235 428,232 466,221 481,217 514,213 538,212 568,213 "/>
</g>
<g id="ternary-text">

<text x="500" y="5" dy="0.76em" text-anchor="middle" font-family="sans-serif" font-size="25.806451612903228" opacity="1" fill="#000000" font-weight="bold">
Filled bands with stepped scalar intervals
</text>
</g>
</svg>
